PathFileType	4	(X/Y/Z)	C:\Users\WrightLab\Desktop\Jo\P2_Trial13.trc
DataRate	CameraRate	NumFrames	NumMarkers	Units	OrigDataRate	OrigDataStartFrame	OrigNumFrames
100.00	100.00	       20	19	mm	100.00	142	       567
Frame#	Time	Headset_Front			Headset_Back			Headset_Left			Headset_Right			Left_Shoulder			Right_Shoulder			Sternum			C7			Left Elbow			Right Elbow			Left Wrist			Right Wrist			Left ASIS			Right ASIS			S2			Left Knee			Right Knee			Left Ankle			Right Ankle			
		X1	Y1	Z1	X2	Y2	Z2	X3	Y3	Z3	X4	Y4	Z4	X5	Y5	Z5	X6	Y6	Z6	X7	Y7	Z7	X8	Y8	Z8	X9	Y9	Z9	X10	Y10	Z10	X11	Y11	Z11	X12	Y12	Z12	X13	Y13	Z13	X14	Y14	Z14	X15	Y15	Z15	X16	Y16	Z16	X17	Y17	Z17	X18	Y18	Z18	X19	Y19	Z19	

142	1.410				-686.55847	1669.46631	-619.38165				-765.90399	1521.27405	-465.87006	-542.17828	1415.19421	-655.59076	-873.10632	1419.70251	-621.38934	-707.94965	1299.91284	-579.54150	-730.22223	1408.12219	-746.00977	-444.58078	1082.60815	-566.78845	-979.13361	1103.84937	-719.24127	-445.22791	868.43005	-470.63062	-1031.05933	854.54126	-722.16705	-661.36597	1014.00696	-545.75183				-731.09119	923.93689	-799.99695	-564.41156	412.08801	-752.68903	-909.02637	563.37012	-495.34195	-637.32587	58.26719	-752.48090	-968.25793	126.04469	-470.13666	
143	1.420				-686.29773	1668.66443	-609.37817	-562.40533	1559.48450	-557.18567	-765.21887	1520.30481	-455.35013	-542.70905	1414.20581	-647.13403	-872.99884	1418.93225	-608.85645	-707.12164	1299.80518	-565.44916	-731.33606	1407.79114	-735.53900	-444.84201	1082.24487	-557.21155	-980.98853	1103.80591	-706.07428	-445.50241	867.14478	-463.43872	-1032.71729	854.65924	-711.41010	-660.09558	1012.81238	-535.43799	-790.84497	1000.51544	-525.03961	-732.78479	923.49554	-790.06451	-564.53833	413.37723	-754.10529	-905.78302	551.38318	-492.99588	-630.81708	57.35799	-752.91309	-961.86621	121.31559	-437.38470	
144	1.430				-686.13666	1667.55457	-598.51971	-561.91437	1558.04578	-547.74390	-764.17651	1518.99329	-443.99048	-543.31140	1413.30029	-638.64655	-873.19855	1418.08936	-596.72302	-706.88318	1299.08374	-556.22998	-732.98999	1406.23608	-724.27502	-447.31387	1081.16980	-548.50891	-982.62573	1103.14392	-692.33197	-445.61215	867.74054	-453.67996	-1035.41016	854.55347	-699.86615	-659.58307	1012.16626	-524.29028	-790.39655	998.67816	-513.09576	-733.70197	921.82794	-778.43756	-565.92664	416.35568	-754.49274	-903.06958	540.92670	-496.89822	-624.85797	57.96099	-753.53918	-953.38690	116.48326	-409.77863	
145	1.440				-685.84375	1666.58301	-588.30774	-562.39490	1556.62988	-537.70135	-763.22290	1518.37805	-433.45871	-543.76117	1412.33789	-630.06250	-872.80695	1416.86731	-583.64636	-706.86920	1297.62964	-546.82574	-734.32922	1405.64539	-714.04254	-448.65781	1080.36877	-540.09045	-984.52539	1102.78137	-678.72919	-445.87415	867.51910	-443.63229	-1035.71472	854.43292	-687.20526	-658.80872	1011.26666	-512.48053	-789.47876	997.47687	-501.02036	-735.74976	920.72931	-767.18585	-567.36780	418.93359	-753.39227	-899.09100	531.60089	-499.17691	-620.59351	58.47708	-754.87036	-945.66437	116.41216	-381.81573	
146	1.450				-685.65784	1665.58228	-578.55450	-561.60297	1555.89661	-527.44189	-762.94739	1517.72351	-423.11493	-543.85803	1410.48840	-620.25952	-873.23682	1416.58362	-571.82013	-705.81433	1298.10229	-532.99640	-735.88422	1404.46240	-703.04639	-448.76990	1079.49780	-532.70313	-985.87000	1101.69531	-664.36603	-445.74841	866.71649	-436.59482	-1037.65564	854.20905	-673.83716	-658.25940	1011.66302	-502.63016				-737.42377	918.98511	-754.96405	-569.34387	421.12442	-750.77777	-895.70490	525.52863	-503.08743	-615.26428	59.60934	-755.71539	-936.96326	122.01561	-348.84946	
147	1.460				-685.48492	1664.44287	-568.48291	-561.11621	1554.78955	-518.41644	-761.45270	1516.85706	-412.54312	-545.07037	1409.99475	-611.89801	-873.02386	1415.96741	-559.31696	-706.03381	1296.16309	-524.42755	-737.42084	1403.42566	-692.49707	-448.15720	1079.49890	-524.38879	-986.88165	1100.98657	-650.70917	-445.33112	866.03754	-431.34158	-1039.48230	853.86304	-659.97638	-657.96521	1010.96869	-492.05551				-739.11163	918.20740	-743.37592	-571.11847	423.16791	-746.59326	-889.86823	522.84857	-503.46155	-611.20306	61.37643	-756.96191	-927.39044	125.99812	-326.06552	
148	1.470				-685.21783	1663.60547	-558.07434	-560.60938	1553.54736	-508.99039	-760.18024	1515.95520	-401.09073	-545.42963	1408.52771	-603.08716	-873.59302	1415.25366	-547.23645	-705.26337	1295.80542	-512.44568	-739.01251	1402.45471	-681.32690	-448.62231	1077.90344	-515.62897	-988.26648	1099.69971	-636.05786	-444.48340	864.69250	-420.80020	-1040.53430	852.53656	-645.39111	-657.32678	1010.00092	-480.81998				-740.66711	917.08905	-731.04260	-572.95313	425.07477	-741.04468	-880.91028	523.32465	-499.49130	-607.41101	61.68424	-757.12830	-918.23492	133.71011	-303.02341	
149	1.480				-684.96576	1662.65308	-548.00403	-560.53876	1552.74731	-499.93585	-758.36676	1514.96704	-390.32605	-546.25146	1407.58105	-594.90540	-873.50769	1414.17114	-534.47052	-705.04431	1295.57288	-501.79657	-740.63416	1401.57532	-670.76355	-448.88028	1076.86243	-508.77902	-989.71576	1099.49060	-622.02081	-444.05301	864.02637	-415.51233	-1041.02368	850.98505	-630.65698	-657.20721	1010.04346	-469.72858	-786.14014	999.41241	-452.11636	-742.11615	916.18494	-719.30377	-575.23523	427.59451	-734.77509	-871.07544	525.74524	-492.34875	-605.33728	63.57458	-758.33746	-907.22430	142.39615	-281.41458	
150	1.490				-684.75421	1662.01746	-538.03296	-559.78955	1551.92957	-491.66507	-756.20209	1514.33533	-378.93594	-546.95410	1407.33875	-585.46173	-873.57452	1413.72961	-522.26929	-704.42303	1294.11548	-493.00162	-742.34094	1400.23108	-659.85077	-448.19650	1075.97107	-501.50589	-990.86102	1098.51807	-607.74652	-442.74069	861.30804	-410.97580	-1043.16260	850.74634	-614.94611	-656.50665	1008.74750	-459.23114	-785.68787	997.31091	-443.81464	-743.08960	915.21655	-705.70978	-578.05389	428.48547	-725.59943	-864.23267	526.12463	-482.66956	-601.12018	65.78413	-759.38794	-895.90143	150.93576	-261.28000	
151	1.500	-634.95343	1428.53113	-325.42465	-684.63391	1661.20203	-528.53668	-559.28558	1550.87366	-483.03461	-756.79596	1515.08167	-369.40796	-547.44476	1406.09436	-576.93890	-874.56763	1412.28076	-511.55368	-703.34186	1294.11194	-481.86209	-743.78082	1399.19714	-649.04315	-448.71735	1074.03137	-496.19644	-991.72601	1097.23853	-593.19916	-441.57690	858.64423	-404.13153	-1043.29553	848.45691	-598.72449	-656.65460	1008.45667	-444.75977	-785.32092	995.99280	-433.45123	-744.06598	913.74615	-692.51764	-580.22498	429.79794	-716.04980	-858.34692	526.23486	-471.66019	-597.58887	68.80210	-759.81293	-886.17896	158.27773	-241.87746	
152	1.510	-634.36188	1428.03308	-315.53595	-684.48334	1660.46558	-518.75989	-559.26459	1550.34229	-474.57828	-755.60840	1514.90320	-359.32751	-548.17065	1405.40137	-567.99432	-874.01270	1412.24292	-498.13046	-703.98297	1293.97607	-471.30661	-745.21088	1398.02344	-638.29657	-447.53229	1073.18811	-489.90475	-992.60004	1096.29614	-578.08191	-439.25708	856.81689	-401.70142	-1044.74084	848.46344	-582.18976	-655.46613	1008.42633	-433.32062	-784.08551	998.01202	-418.93546	-744.84033	912.27490	-679.14905	-582.85419	430.30017	-705.94153	-854.85187	527.55530	-460.63705	-593.41107	71.23441	-761.92749	-875.56543	165.94838	-220.59435	
153	1.520				-684.34088	1660.14917	-509.50308	-558.58362	1549.09973	-465.74258	-753.51508	1514.61926	-348.54959	-548.82648	1404.41101	-559.95190	-874.12982	1411.92334	-486.32831	-703.11908	1292.22131	-460.21448	-746.58868	1396.79053	-627.22772	-446.18100	1071.87390	-483.07874	-993.82477	1095.17456	-563.14026	-438.58688	854.65680	-395.90863	-1044.56299	846.53253	-565.56720	-655.69385	1007.41443	-422.66852	-783.78973	996.39313	-407.14258	-745.37732	910.86560	-665.32697	-585.26862	430.66830	-695.42712				-590.22479	74.44155	-761.73785	-864.56421	173.47615	-201.47511	
154	1.530	-632.07599	1427.84814	-297.40311	-684.22034	1659.85034	-499.55893	-558.06848	1549.14624	-457.86935	-750.64636	1514.14343	-337.21793	-549.06152	1403.72107	-551.33551	-874.21454	1411.72070	-474.41296	-702.39569	1292.61011	-451.86298	-748.04114	1395.92529	-615.90643	-445.66425	1069.98022	-476.39655	-994.86200	1094.46082	-548.37274	-435.43295	851.58466	-387.56812	-1044.95227	845.02985	-548.97998	-653.89575	1007.17773	-408.81497	-782.35651	996.95032	-391.55695	-745.39252	908.63361	-652.30859	-588.83020	430.74380	-681.98242				-586.52734	77.74239	-763.44861	-853.78424	180.30815	-184.26912	
155	1.540	-630.38428	1429.23547	-288.41925	-683.90070	1659.90417	-489.62860	-557.98529	1548.62439	-447.94452	-749.88153	1514.80054	-326.84348	-549.96124	1403.26099	-542.64270	-873.83667	1411.24231	-462.58688	-702.86591	1293.85608	-435.29410	-749.44647	1395.45557	-605.39832	-445.02979	1068.39722	-471.84070	-995.13049	1093.50134	-532.26715	-435.77838	848.85626	-387.62643	-1046.81836	845.40375	-531.38354	-653.20239	1006.73071	-396.61996	-782.47101	996.67651	-379.32117	-746.69849	907.36859	-639.55823	-591.67010	430.08499	-667.28351				-583.55042	82.34998	-765.03387	-845.04773	186.94780	-168.60150	
156	1.550	-627.61890	1430.46375	-278.85898	-683.37787	1660.77979	-480.15460	-557.55035	1548.74780	-440.04669	-748.85376	1515.65894	-316.01135	-550.02612	1403.48096	-533.99176	-873.91180	1411.77930	-450.63541	-701.63409	1295.02222	-425.24951	-750.50922	1395.49573	-594.78839	-443.48605	1066.95435	-466.01117	-995.97455	1093.31104	-517.90497	-431.97977	845.70245	-381.17480	-1047.00647	844.68488	-513.98328	-651.71802	1007.03644	-385.13644	-778.96533	998.93854	-359.37106	-748.05200	907.22028	-626.71985	-595.60114	428.95920	-653.06744				-578.73535	88.24477	-765.55536	-836.25922	194.28674	-155.61024	
157	1.560	-626.03174	1429.59668	-269.25290	-683.07501	1661.15576	-470.16791	-556.81305	1549.41052	-433.38193	-746.79968	1517.30603	-304.91681	-549.88794	1403.53894	-525.41376	-872.89929	1411.72534	-438.56097	-700.70715	1294.47266	-415.67691	-751.36298	1395.66309	-584.06995	-442.68747	1066.02686	-461.25815	-996.45911	1092.96106	-502.27188	-432.09201	841.66833	-383.16614	-1045.04211	844.05676	-494.89249	-651.04724	1006.06470	-380.61081	-779.21442	998.17706	-349.32278	-749.44617	906.52344	-614.67657	-600.09003	427.99854	-636.89026				-575.77759	94.88595	-764.90509	-826.91425	200.11508	-143.42946	
158	1.570	-623.72211	1430.67590	-260.43549	-682.86182	1661.18469	-461.13525	-555.99017	1548.97498	-423.80408	-744.49432	1518.74329	-295.02576	-550.42505	1403.94458	-516.17328	-872.45264	1412.18506	-426.58423	-699.66217	1295.36230	-403.72833	-752.05463	1395.64014	-573.17627	-441.66180	1065.64807	-456.12036	-996.45123	1092.97302	-486.41205	-431.06726	840.52979	-383.64578	-1046.20740	844.35870	-476.80069	-649.47278	1006.30927	-365.92834	-776.56592	998.22827	-337.38434	-751.07867	905.62915	-602.78149	-605.42499	427.81882	-621.60193				-573.66211	104.30473	-764.72717	-818.38080	206.73849	-132.01845	
159	1.580	-621.33044	1432.90845	-250.91898	-682.61853	1661.25818	-452.28387	-555.67609	1549.69324	-415.66858	-741.98334	1519.77942	-283.93201	-549.93011	1404.91077	-508.45337	-870.69794	1412.09094	-414.11618	-697.04089	1297.67957	-388.52902	-752.42084	1396.00720	-563.30847	-440.47827	1065.44385	-452.51050	-996.69653	1093.12805	-470.72861	-428.88394	836.88654	-376.77612	-1046.00366	844.44250	-458.15009	-648.20532	1006.79102	-357.05197	-773.92737	998.03308	-331.91962	-752.40845	905.01831	-592.24622	-611.14801	426.06473	-602.49689				-573.67047	115.91230	-762.76257	-811.08167	212.00351	-122.99183	
160	1.590	-618.16272	1434.38232	-242.07520	-682.26385	1661.41370	-443.27490	-554.35486	1550.13843	-407.82825	-739.39539	1519.89587	-272.89661	-549.21893	1405.40063	-499.11755	-869.16760	1412.54138	-403.06985	-695.55695	1297.69165	-378.02896	-752.76727	1396.04968	-552.27307	-440.02881	1064.37708	-447.85025	-996.76953	1093.39600	-453.86829	-427.98572	834.08466	-379.02164	-1045.03967	845.21826	-438.86624	-644.07971	1008.49872	-343.45950	-772.77228	996.92871	-325.59628	-753.77820	905.07751	-581.12231	-617.43970	425.55811	-584.02985				-577.04694	126.29996	-760.52106	-804.82031	214.58627	-114.12845	
161	1.600	-615.51404	1434.95935	-230.51376	-681.93109	1661.34180	-434.37048	-554.14856	1550.08191	-398.69162	-737.60126	1520.39587	-263.40894	-548.65607	1405.65466	-490.83707	-867.70892	1413.33838	-391.28973	-693.23486	1297.67822	-369.94299	-752.87036	1396.74109	-542.33142	-439.11560	1063.89124	-442.73529	-996.85767	1093.56653	-437.59708	-421.11890	837.58771	-357.46417	-1044.07373	845.42218	-418.83517	-640.78534	1008.98743	-335.32568	-769.19916	999.52924	-312.38666	-754.80756	905.32495	-570.50012	-623.56537	423.84476	-563.23560				-580.83514	138.54504	-755.82629	-799.54541	215.81758	-105.06425	
